<svg width="35" height="35" viewBox="0 0 35 35" fill="none" xmlns="http://www.w3.org/2000/svg">
<g clip-path="url(#clip0_116_116)">
<path d="M17.6065 21.7414C20.008 21.7414 21.9547 19.7946 21.9547 17.3931C21.9547 14.9917 20.008 13.0449 17.6065 13.0449C15.205 13.0449 13.2582 14.9917 13.2582 17.3931C13.2582 19.7946 15.205 21.7414 17.6065 21.7414Z" stroke="#0284C7" stroke-width="2.80258" stroke-linecap="round" stroke-linejoin="round"/>
<path d="M17.6063 30.438V30.4509" stroke="#0284C7" stroke-width="3.63394" stroke-linecap="round" stroke-linejoin="round"/>
<path d="M4.56189 13.0449V13.0577" stroke="#0284C7" stroke-width="3.63394" stroke-linecap="round" stroke-linejoin="round"/>
<path d="M30.6516 13.0449V13.0577" stroke="#0284C7" stroke-width="3.63394" stroke-linecap="round" stroke-linejoin="round"/>
<path d="M11.809 29.1336C9.83105 28.1688 8.12931 26.7193 6.86218 24.92C5.59506 23.1207 4.80374 21.03 4.56189 18.8427" stroke="#0284C7" stroke-width="5.08752" stroke-linecap="round" stroke-linejoin="round"/>
<path d="M23.4041 29.1336C25.382 28.1688 27.0838 26.7193 28.3509 24.92C29.618 23.1207 30.4093 21.03 30.6512 18.8427" stroke="#0284C7" stroke-width="5.08752" stroke-linecap="round" stroke-linejoin="round"/>
<path d="M9.20007 7.24704C11.5309 5.33954 14.45 4.29733 17.4618 4.29733C20.4737 4.29733 23.3927 5.33954 25.7235 7.24704" stroke="#0284C7" stroke-width="5.08752" stroke-linecap="round" stroke-linejoin="round"/>
</g>
<defs>
<clipPath id="clip0_116_116">
<rect width="34.7863" height="34.7863" fill="white" transform="translate(0.213745)"/>
</clipPath>
</defs>
</svg>
