<svg width="50" height="18" viewBox="0 0 50 18" fill="none" xmlns="http://www.w3.org/2000/svg">
<path d="M0 14.359V5.65663H1.98862V7.10702H2.07927C2.23791 6.60467 2.50986 6.21752 2.89512 5.94557C3.28416 5.66985 3.72796 5.53198 4.22653 5.53198C4.33985 5.53198 4.46638 5.53765 4.60613 5.54898C4.74966 5.55653 4.86864 5.56975 4.96306 5.58864V7.47528C4.87619 7.44507 4.73833 7.41863 4.54947 7.39596C4.3644 7.36952 4.18499 7.3563 4.01124 7.3563C3.63731 7.3563 3.30115 7.43751 3.00277 7.59992C2.70815 7.75856 2.47587 7.97952 2.3059 8.2628C2.13593 8.54608 2.05095 8.8728 2.05095 9.24295V14.359H0Z" fill="#1E293B"/>
<path d="M9.76324 14.5289C8.9134 14.5289 8.17687 14.342 7.55366 13.9681C6.93044 13.5941 6.44698 13.071 6.10326 12.3987C5.76333 11.7264 5.59336 10.9407 5.59336 10.0418C5.59336 9.14286 5.76333 8.35534 6.10326 7.67924C6.44698 7.00315 6.93044 6.47814 7.55366 6.10421C8.17687 5.73028 8.9134 5.54331 9.76324 5.54331C10.6131 5.54331 11.3496 5.73028 11.9728 6.10421C12.596 6.47814 13.0776 7.00315 13.4175 7.67924C13.7613 8.35534 13.9331 9.14286 13.9331 10.0418C13.9331 10.9407 13.7613 11.7264 13.4175 12.3987C13.0776 13.071 12.596 13.5941 11.9728 13.9681C11.3496 14.342 10.6131 14.5289 9.76324 14.5289ZM9.77457 12.8859C10.2354 12.8859 10.6206 12.7594 10.9304 12.5063C11.2401 12.2495 11.4705 11.9058 11.6216 11.4752C11.7764 11.0446 11.8538 10.5649 11.8538 10.0361C11.8538 9.50357 11.7764 9.02199 11.6216 8.5914C11.4705 8.15704 11.2401 7.81144 10.9304 7.5546C10.6206 7.29776 10.2354 7.16934 9.77457 7.16934C9.30244 7.16934 8.90962 7.29776 8.59613 7.5546C8.28641 7.81144 8.05412 8.15704 7.89926 8.5914C7.74817 9.02199 7.67263 9.50357 7.67263 10.0361C7.67263 10.5649 7.74817 11.0446 7.89926 11.4752C8.05412 11.9058 8.28641 12.2495 8.59613 12.5063C8.90962 12.7594 9.30244 12.8859 9.77457 12.8859Z" fill="#1E293B"/>
<g clip-path="url(#clip0_55_146)">
<path d="M47.6068 2.9915C47.9373 2.9915 48.2051 2.72363 48.2051 2.39321C48.2051 2.06278 47.9373 1.79492 47.6068 1.79492C47.2764 1.79492 47.0085 2.06278 47.0085 2.39321C47.0085 2.72363 47.2764 2.9915 47.6068 2.9915Z" stroke="#0284C7" stroke-width="0.385612" stroke-linecap="round" stroke-linejoin="round"/>
<path d="M47.6068 4.18799V4.18971" stroke="#0284C7" stroke-width="0.5" stroke-linecap="round" stroke-linejoin="round"/>
<path d="M45.812 1.79492V1.79664" stroke="#0284C7" stroke-width="0.5" stroke-linecap="round" stroke-linejoin="round"/>
<path d="M49.4017 1.79492V1.79664" stroke="#0284C7" stroke-width="0.5" stroke-linecap="round" stroke-linejoin="round"/>
<path d="M46.8092 4.00848C46.537 3.87573 46.3029 3.67629 46.1285 3.42872C45.9542 3.18115 45.8453 2.8935 45.812 2.59253" stroke="#0284C7" stroke-width="0.7" stroke-linecap="round" stroke-linejoin="round"/>
<path d="M48.4045 4.00848C48.6767 3.87573 48.9108 3.67629 49.0852 3.42872C49.2595 3.18115 49.3684 2.8935 49.4017 2.59253" stroke="#0284C7" stroke-width="0.7" stroke-linecap="round" stroke-linejoin="round"/>
<path d="M46.4502 0.997164C46.7709 0.734707 47.1725 0.591309 47.5869 0.591309C48.0013 0.591309 48.403 0.734707 48.7237 0.997164" stroke="#0284C7" stroke-width="0.7" stroke-linecap="round" stroke-linejoin="round"/>
</g>
<path d="M16.5594 14.5288C15.7096 14.5288 14.973 14.3419 14.3498 13.968C13.7266 13.594 13.2431 13.0709 12.8994 12.3986C12.5595 11.7263 12.3895 10.9406 12.3895 10.0417C12.3895 9.14275 12.5595 8.35524 12.8994 7.67914C13.2431 7.00305 13.7266 6.47804 14.3498 6.10411C14.973 5.73018 15.7096 5.54321 16.5594 5.54321C17.4092 5.54321 18.1458 5.73018 18.769 6.10411C19.3922 6.47804 19.8738 7.00305 20.2137 7.67914C20.5574 8.35524 20.7293 9.14275 20.7293 10.0417C20.7293 10.9406 20.5574 11.7263 20.2137 12.3986C19.8738 13.0709 19.3922 13.594 18.769 13.968C18.1458 14.3419 17.4092 14.5288 16.5594 14.5288ZM16.5707 12.8858C17.0315 12.8858 17.4168 12.7593 17.7265 12.5062C18.0362 12.2494 18.2666 11.9057 18.4177 11.4751C18.5726 11.0445 18.65 10.5648 18.65 10.036C18.65 9.50346 18.5726 9.02189 18.4177 8.5913C18.2666 8.15694 18.0362 7.81134 17.7265 7.5545C17.4168 7.29766 17.0315 7.16924 16.5707 7.16924C16.0986 7.16924 15.7058 7.29766 15.3923 7.5545C15.0826 7.81134 14.8503 8.15694 14.6954 8.5913C14.5443 9.02189 14.4688 9.50346 14.4688 10.036C14.4688 10.5648 14.5443 11.0445 14.6954 11.4751C14.8503 11.9057 15.0826 12.2494 15.3923 12.5062C15.7058 12.7593 16.0986 12.8858 16.5707 12.8858Z" fill="#1E293B"/>
<path d="M22.47 14.3589V5.65652H24.4303V7.13524H24.5323C24.7136 6.63667 25.0139 6.24763 25.4331 5.96813C25.8524 5.68485 26.3529 5.54321 26.9345 5.54321C27.5238 5.54321 28.0204 5.68674 28.4246 5.9738C28.8325 6.25708 29.1196 6.64423 29.2858 7.13524H29.3764C29.569 6.65178 29.8939 6.26652 30.3509 5.97946C30.8117 5.68863 31.3575 5.54321 31.9882 5.54321C32.789 5.54321 33.4424 5.79628 33.9485 6.3024C34.4547 6.80853 34.7077 7.54695 34.7077 8.51765V14.3589H32.6511V8.83492C32.6511 8.2948 32.5076 7.9001 32.2205 7.65081C31.9335 7.39775 31.5822 7.27122 31.1667 7.27122C30.6719 7.27122 30.2848 7.42608 30.0053 7.7358C29.7296 8.04174 29.5917 8.44022 29.5917 8.93124V14.3589H27.5804V8.74994C27.5804 8.30047 27.4444 7.94165 27.1725 7.67348C26.9043 7.4053 26.553 7.27122 26.1187 7.27122C25.8241 7.27122 25.5559 7.34676 25.3142 7.49784C25.0724 7.64515 24.8798 7.85478 24.7363 8.12672C24.5927 8.3949 24.521 8.70839 24.521 9.06721V14.3589H22.47Z" fill="#1E293B"/>
<path d="M36.7884 17.6223V5.65652H38.8054V7.09559H38.9243C39.0301 6.88407 39.1793 6.65933 39.3719 6.42138C39.5646 6.17965 39.8252 5.9738 40.1538 5.80383C40.4824 5.63008 40.9016 5.54321 41.4115 5.54321C42.0839 5.54321 42.6901 5.71507 43.2302 6.05878C43.7741 6.39872 44.2047 6.90296 44.522 7.5715C44.843 8.23626 45.0035 9.0521 45.0035 10.019C45.0035 10.9746 44.8468 11.7867 44.5333 12.4552C44.2198 13.1238 43.793 13.6337 43.2529 13.985C42.7127 14.3362 42.1009 14.5119 41.4172 14.5119C40.9186 14.5119 40.505 14.4288 40.1764 14.2626C39.8478 14.0964 39.5834 13.8962 39.3833 13.662C39.1869 13.4241 39.0339 13.1993 38.9243 12.9878H38.8394V17.6223H36.7884ZM38.7997 10.0077C38.7997 10.5705 38.879 11.0634 39.0377 11.4864C39.2001 11.9095 39.4324 12.2399 39.7345 12.4779C40.0405 12.7121 40.4106 12.8292 40.845 12.8292C41.2982 12.8292 41.6778 12.7083 41.9838 12.4666C42.2897 12.2211 42.5201 11.8868 42.675 11.4638C42.8336 11.037 42.9129 10.5516 42.9129 10.0077C42.9129 9.46758 42.8355 8.9879 42.6806 8.56864C42.5258 8.14939 42.2954 7.82078 41.9894 7.58283C41.6835 7.34487 41.302 7.22589 40.845 7.22589C40.4068 7.22589 40.0348 7.34109 39.7289 7.5715C39.4229 7.8019 39.1906 8.12484 39.032 8.54031C38.8771 8.95579 38.7997 9.44492 38.7997 10.0077Z" fill="#0284C7"/>
<path d="M46.7599 14.3589V5.65652H48.8108V14.3589H46.7599Z" fill="#0284C7"/>
<defs>
<clipPath id="clip0_55_146">
<rect width="4.7863" height="4.7863" fill="white" transform="translate(45.2137)"/>
</clipPath>
</defs>
</svg>
